<?xml version="1.0" encoding="UTF-8" standalone="no"?>
<!DOCTYPE svg PUBLIC "-//W3C//DTD SVG 1.1//EN"
 "http://www.w3.org/Graphics/SVG/1.1/DTD/svg11.dtd">
<!-- Generated by graphviz version 2.38.0 (20140413.2041)
 -->
<!-- Title: G Pages: 1 -->
<svg width="751pt" height="948pt"
 viewBox="0.00 0.00 751.36 948.00" xmlns="http://www.w3.org/2000/svg" xmlns:xlink="http://www.w3.org/1999/xlink">
<g id="graph0" class="graph" transform="scale(1 1) rotate(0) translate(4 944)">
<title>G</title>
<polygon fill="white" stroke="none" points="-4,4 -4,-944 747.361,-944 747.361,4 -4,4"/>
<g id="clust1" class="cluster"><title>cluster_Global</title>
<path fill="none" stroke="gray" d="M491.361,-8C491.361,-8 723.361,-8 723.361,-8 729.361,-8 735.361,-14 735.361,-20 735.361,-20 735.361,-920 735.361,-920 735.361,-926 729.361,-932 723.361,-932 723.361,-932 491.361,-932 491.361,-932 485.361,-932 479.361,-926 479.361,-920 479.361,-920 479.361,-20 479.361,-20 479.361,-14 485.361,-8 491.361,-8"/>
<text text-anchor="middle" x="607.361" y="-919.2" font-family="Times,serif" font-size="11.00" fill="gray">Global</text>
</g>
<g id="clust2" class="cluster"><title>cluster_\AppBundle</title>
<path fill="none" stroke="gray" d="M499.361,-16C499.361,-16 715.361,-16 715.361,-16 721.361,-16 727.361,-22 727.361,-28 727.361,-28 727.361,-892 727.361,-892 727.361,-898 721.361,-904 715.361,-904 715.361,-904 499.361,-904 499.361,-904 493.361,-904 487.361,-898 487.361,-892 487.361,-892 487.361,-28 487.361,-28 487.361,-22 493.361,-16 499.361,-16"/>
<text text-anchor="middle" x="607.361" y="-891.2" font-family="Times,serif" font-size="11.00" fill="gray">AppBundle</text>
</g>
<g id="clust3" class="cluster"><title>cluster_\AppBundle\Form</title>
<path fill="none" stroke="gray" d="M555.861,-696C555.861,-696 658.861,-696 658.861,-696 664.861,-696 670.861,-702 670.861,-708 670.861,-708 670.861,-864 670.861,-864 670.861,-870 664.861,-876 658.861,-876 658.861,-876 555.861,-876 555.861,-876 549.861,-876 543.861,-870 543.861,-864 543.861,-864 543.861,-708 543.861,-708 543.861,-702 549.861,-696 555.861,-696"/>
<text text-anchor="middle" x="607.361" y="-863.2" font-family="Times,serif" font-size="11.00" fill="gray">Form</text>
</g>
<g id="clust4" class="cluster"><title>cluster_\AppBundle\Entity</title>
<path fill="none" stroke="gray" d="M584.361,-562C584.361,-562 630.361,-562 630.361,-562 636.361,-562 642.361,-568 642.361,-574 642.361,-574 642.361,-676 642.361,-676 642.361,-682 636.361,-688 630.361,-688 630.361,-688 584.361,-688 584.361,-688 578.361,-688 572.361,-682 572.361,-676 572.361,-676 572.361,-574 572.361,-574 572.361,-568 578.361,-562 584.361,-562"/>
<text text-anchor="middle" x="607.361" y="-675.2" font-family="Times,serif" font-size="11.00" fill="gray">Entity</text>
</g>
<g id="clust5" class="cluster"><title>cluster_\AppBundle\Tests</title>
<path fill="none" stroke="gray" d="M507.361,-338C507.361,-338 707.361,-338 707.361,-338 713.361,-338 719.361,-344 719.361,-350 719.361,-350 719.361,-542 719.361,-542 719.361,-548 713.361,-554 707.361,-554 707.361,-554 507.361,-554 507.361,-554 501.361,-554 495.361,-548 495.361,-542 495.361,-542 495.361,-350 495.361,-350 495.361,-344 501.361,-338 507.361,-338"/>
<text text-anchor="middle" x="607.361" y="-541.2" font-family="Times,serif" font-size="11.00" fill="gray">Tests</text>
</g>
<g id="clust6" class="cluster"><title>cluster_\AppBundle\Tests\Controller</title>
<path fill="none" stroke="gray" d="M515.361,-346C515.361,-346 699.361,-346 699.361,-346 705.361,-346 711.361,-352 711.361,-358 711.361,-358 711.361,-514 711.361,-514 711.361,-520 705.361,-526 699.361,-526 699.361,-526 515.361,-526 515.361,-526 509.361,-526 503.361,-520 503.361,-514 503.361,-514 503.361,-358 503.361,-358 503.361,-352 509.361,-346 515.361,-346"/>
<text text-anchor="middle" x="607.361" y="-513.2" font-family="Times,serif" font-size="11.00" fill="gray">Controller</text>
</g>
<g id="clust7" class="cluster"><title>cluster_\AppBundle\Controller</title>
<path fill="none" stroke="gray" d="M528.861,-150C528.861,-150 685.861,-150 685.861,-150 691.861,-150 697.861,-156 697.861,-162 697.861,-162 697.861,-318 697.861,-318 697.861,-324 691.861,-330 685.861,-330 685.861,-330 528.861,-330 528.861,-330 522.861,-330 516.861,-324 516.861,-318 516.861,-318 516.861,-162 516.861,-162 516.861,-156 522.861,-150 528.861,-150"/>
<text text-anchor="middle" x="607.361" y="-317.2" font-family="Times,serif" font-size="11.00" fill="gray">Controller</text>
</g>
<g id="clust8" class="cluster"><title>cluster_\AppBundle\Service</title>
<path fill="none" stroke="gray" d="M582.861,-70C582.861,-70 631.861,-70 631.861,-70 637.861,-70 643.861,-76 643.861,-82 643.861,-82 643.861,-130 643.861,-130 643.861,-136 637.861,-142 631.861,-142 631.861,-142 582.861,-142 582.861,-142 576.861,-142 570.861,-136 570.861,-130 570.861,-130 570.861,-82 570.861,-82 570.861,-76 576.861,-70 582.861,-70"/>
<text text-anchor="middle" x="607.361" y="-129.2" font-family="Times,serif" font-size="11.00" fill="gray">Service</text>
</g>
<!-- \\AppBundle\\Form\\ValidationType -->
<g id="node1" class="node"><title>\\AppBundle\\Form\\ValidationType</title>
<polygon fill="none" stroke="black" points="662.861,-848 551.861,-848 551.861,-812 662.861,-812 662.861,-848"/>
<text text-anchor="middle" x="607.361" y="-827.2" font-family="Courier,monospace" font-size="11.00">ValidationType</text>
</g>
<!-- \\Symfony\\Component\\Form\\AbstractType -->
<g id="node14" class="node"><title>\\Symfony\\Component\\Form\\AbstractType</title>
<ellipse fill="none" stroke="black" cx="219.681" cy="-776" rx="161.671" ry="18"/>
<text text-anchor="middle" x="219.681" y="-772.3" font-family="Times,serif" font-size="14.00" fill="gray">\Symfony\Component\Form\AbstractType</text>
</g>
<!-- \\AppBundle\\Form\\ValidationType&#45;&gt;\\Symfony\\Component\\Form\\AbstractType -->
<g id="edge1" class="edge"><title>\\AppBundle\\Form\\ValidationType&#45;&gt;\\Symfony\\Component\\Form\\AbstractType</title>
<path fill="none" stroke="black" d="M551.512,-822.32C494.407,-814.325 403.4,-801.583 331.279,-791.485"/>
<polygon fill="none" stroke="black" points="331.622,-787.999 321.233,-790.079 330.651,-794.931 331.622,-787.999"/>
</g>
<!-- \\AppBundle\\Form\\RegisterType -->
<g id="node2" class="node"><title>\\AppBundle\\Form\\RegisterType</title>
<polygon fill="none" stroke="black" points="656.361,-794 558.361,-794 558.361,-758 656.361,-758 656.361,-794"/>
<text text-anchor="middle" x="607.361" y="-773.2" font-family="Courier,monospace" font-size="11.00">RegisterType</text>
</g>
<!-- \\AppBundle\\Form\\RegisterType&#45;&gt;\\Symfony\\Component\\Form\\AbstractType -->
<g id="edge5" class="edge"><title>\\AppBundle\\Form\\RegisterType&#45;&gt;\\Symfony\\Component\\Form\\AbstractType</title>
<path fill="none" stroke="black" d="M558.294,-776C516.308,-776 452.744,-776 392.052,-776"/>
<polygon fill="none" stroke="black" points="391.947,-772.5 381.947,-776 391.947,-779.5 391.947,-772.5"/>
</g>
<!-- \\AppBundle\\Form\\NewsType -->
<g id="node3" class="node"><title>\\AppBundle\\Form\\NewsType</title>
<polygon fill="none" stroke="black" points="642.861,-740 571.861,-740 571.861,-704 642.861,-704 642.861,-740"/>
<text text-anchor="middle" x="607.361" y="-719.2" font-family="Courier,monospace" font-size="11.00">NewsType</text>
</g>
<!-- \\AppBundle\\Form\\NewsType&#45;&gt;\\Symfony\\Component\\Form\\AbstractType -->
<g id="edge11" class="edge"><title>\\AppBundle\\Form\\NewsType&#45;&gt;\\Symfony\\Component\\Form\\AbstractType</title>
<path fill="none" stroke="black" d="M571.795,-726.84C518.247,-734.337 412.935,-749.082 331.553,-760.476"/>
<polygon fill="none" stroke="black" points="330.666,-757.066 321.248,-761.919 331.637,-763.999 330.666,-757.066"/>
</g>
<!-- \\AppBundle\\Entity\\User -->
<g id="node4" class="node"><title>\\AppBundle\\Entity\\User</title>
<polygon fill="none" stroke="black" points="634.361,-660 580.361,-660 580.361,-624 634.361,-624 634.361,-660"/>
<text text-anchor="middle" x="607.361" y="-639.2" font-family="Courier,monospace" font-size="11.00">User</text>
</g>
<!-- \\Symfony\\Component\\Security\\Core\\User\\UserInterface -->
<g id="node15" class="node"><title>\\Symfony\\Component\\Security\\Core\\User\\UserInterface</title>
<ellipse fill="none" stroke="black" cx="219.681" cy="-642" rx="209.863" ry="18"/>
<text text-anchor="middle" x="219.681" y="-638.3" font-family="Times,serif" font-size="14.00" fill="gray">\Symfony\Component\Security\Core\User\UserInterface</text>
</g>
<!-- \\AppBundle\\Entity\\User&#45;&gt;\\Symfony\\Component\\Security\\Core\\User\\UserInterface -->
<g id="edge2" class="edge"><title>\\AppBundle\\Entity\\User&#45;&gt;\\Symfony\\Component\\Security\\Core\\User\\UserInterface</title>
<path fill="none" stroke="black" stroke-dasharray="1,5" d="M580.155,-642C549.686,-642 496.32,-642 439.883,-642"/>
<polygon fill="none" stroke="black" points="439.689,-638.5 429.689,-642 439.689,-645.5 439.689,-638.5"/>
</g>
<!-- \\AppBundle\\Entity\\News -->
<g id="node5" class="node"><title>\\AppBundle\\Entity\\News</title>
<polygon fill="none" stroke="black" points="634.361,-606 580.361,-606 580.361,-570 634.361,-570 634.361,-606"/>
<text text-anchor="middle" x="607.361" y="-585.2" font-family="Courier,monospace" font-size="11.00">News</text>
</g>
<!-- \\Eko\\FeedBundle\\Item\\Writer\\ItemInterface -->
<g id="node18" class="node"><title>\\Eko\\FeedBundle\\Item\\Writer\\ItemInterface</title>
<ellipse fill="none" stroke="black" cx="219.681" cy="-588" rx="167.07" ry="18"/>
<text text-anchor="middle" x="219.681" y="-584.3" font-family="Times,serif" font-size="14.00" fill="gray">\Eko\FeedBundle\Item\Writer\ItemInterface</text>
</g>
<!-- \\AppBundle\\Entity\\News&#45;&gt;\\Eko\\FeedBundle\\Item\\Writer\\ItemInterface -->
<g id="edge8" class="edge"><title>\\AppBundle\\Entity\\News&#45;&gt;\\Eko\\FeedBundle\\Item\\Writer\\ItemInterface</title>
<path fill="none" stroke="black" stroke-dasharray="1,5" d="M580.155,-588C542.099,-588 468.321,-588 397.457,-588"/>
<polygon fill="none" stroke="black" points="397.027,-584.5 387.027,-588 397.027,-591.5 397.027,-584.5"/>
</g>
<!-- \\AppBundle\\Tests\\Controller\\RegistrationControllerTest -->
<g id="node6" class="node"><title>\\AppBundle\\Tests\\Controller\\RegistrationControllerTest</title>
<polygon fill="none" stroke="black" points="703.361,-498 511.361,-498 511.361,-462 703.361,-462 703.361,-498"/>
<text text-anchor="middle" x="607.361" y="-477.2" font-family="Courier,monospace" font-size="11.00">RegistrationControllerTest</text>
</g>
<!-- \\Symfony\\Bundle\\FrameworkBundle\\Test\\WebTestCase -->
<g id="node16" class="node"><title>\\Symfony\\Bundle\\FrameworkBundle\\Test\\WebTestCase</title>
<ellipse fill="none" stroke="black" cx="219.681" cy="-426" rx="211.762" ry="18"/>
<text text-anchor="middle" x="219.681" y="-422.3" font-family="Times,serif" font-size="14.00" fill="gray">\Symfony\Bundle\FrameworkBundle\Test\WebTestCase</text>
</g>
<!-- \\AppBundle\\Tests\\Controller\\RegistrationControllerTest&#45;&gt;\\Symfony\\Bundle\\FrameworkBundle\\Test\\WebTestCase -->
<g id="edge3" class="edge"><title>\\AppBundle\\Tests\\Controller\\RegistrationControllerTest&#45;&gt;\\Symfony\\Bundle\\FrameworkBundle\\Test\\WebTestCase</title>
<path fill="none" stroke="black" d="M511.024,-466.652C459.575,-459.448 395.559,-450.485 340.74,-442.81"/>
<polygon fill="none" stroke="black" points="341.005,-439.313 330.616,-441.392 340.034,-446.245 341.005,-439.313"/>
</g>
<!-- \\AppBundle\\Tests\\Controller\\NewsControllerTest -->
<g id="node7" class="node"><title>\\AppBundle\\Tests\\Controller\\NewsControllerTest</title>
<polygon fill="none" stroke="black" points="676.361,-444 538.361,-444 538.361,-408 676.361,-408 676.361,-444"/>
<text text-anchor="middle" x="607.361" y="-423.2" font-family="Courier,monospace" font-size="11.00">NewsControllerTest</text>
</g>
<!-- \\AppBundle\\Tests\\Controller\\NewsControllerTest&#45;&gt;\\Symfony\\Bundle\\FrameworkBundle\\Test\\WebTestCase -->
<g id="edge6" class="edge"><title>\\AppBundle\\Tests\\Controller\\NewsControllerTest&#45;&gt;\\Symfony\\Bundle\\FrameworkBundle\\Test\\WebTestCase</title>
<path fill="none" stroke="black" d="M538.297,-426C510.643,-426 476.99,-426 442.06,-426"/>
<polygon fill="none" stroke="black" points="441.683,-422.5 431.683,-426 441.683,-429.5 441.683,-422.5"/>
</g>
<!-- \\AppBundle\\Tests\\Controller\\SecurityControllerTest -->
<g id="node8" class="node"><title>\\AppBundle\\Tests\\Controller\\SecurityControllerTest</title>
<polygon fill="none" stroke="black" points="689.861,-390 524.861,-390 524.861,-354 689.861,-354 689.861,-390"/>
<text text-anchor="middle" x="607.361" y="-369.2" font-family="Courier,monospace" font-size="11.00">SecurityControllerTest</text>
</g>
<!-- \\AppBundle\\Tests\\Controller\\SecurityControllerTest&#45;&gt;\\Symfony\\Bundle\\FrameworkBundle\\Test\\WebTestCase -->
<g id="edge12" class="edge"><title>\\AppBundle\\Tests\\Controller\\SecurityControllerTest&#45;&gt;\\Symfony\\Bundle\\FrameworkBundle\\Test\\WebTestCase</title>
<path fill="none" stroke="black" d="M524.568,-383.452C471.162,-390.93 400.518,-400.821 340.784,-409.184"/>
<polygon fill="none" stroke="black" points="339.95,-405.767 330.532,-410.619 340.921,-412.699 339.95,-405.767"/>
</g>
<!-- \\AppBundle\\Controller\\SecurityController -->
<g id="node9" class="node"><title>\\AppBundle\\Controller\\SecurityController</title>
<polygon fill="none" stroke="black" points="676.361,-302 538.361,-302 538.361,-266 676.361,-266 676.361,-302"/>
<text text-anchor="middle" x="607.361" y="-281.2" font-family="Courier,monospace" font-size="11.00">SecurityController</text>
</g>
<!-- \\Symfony\\Bundle\\FrameworkBundle\\Controller\\Controller -->
<g id="node17" class="node"><title>\\Symfony\\Bundle\\FrameworkBundle\\Controller\\Controller</title>
<ellipse fill="none" stroke="black" cx="219.681" cy="-230" rx="219.861" ry="18"/>
<text text-anchor="middle" x="219.681" y="-226.3" font-family="Times,serif" font-size="14.00" fill="gray">\Symfony\Bundle\FrameworkBundle\Controller\Controller</text>
</g>
<!-- \\AppBundle\\Controller\\SecurityController&#45;&gt;\\Symfony\\Bundle\\FrameworkBundle\\Controller\\Controller -->
<g id="edge4" class="edge"><title>\\AppBundle\\Controller\\SecurityController&#45;&gt;\\Symfony\\Bundle\\FrameworkBundle\\Controller\\Controller</title>
<path fill="none" stroke="black" d="M538.297,-274.47C484.003,-266.868 406.583,-256.029 341.772,-246.954"/>
<polygon fill="none" stroke="black" points="341.873,-243.434 331.485,-245.514 340.903,-250.367 341.873,-243.434"/>
</g>
<!-- \\AppBundle\\Controller\\RegistrationController -->
<g id="node10" class="node"><title>\\AppBundle\\Controller\\RegistrationController</title>
<polygon fill="none" stroke="black" points="689.861,-248 524.861,-248 524.861,-212 689.861,-212 689.861,-248"/>
<text text-anchor="middle" x="607.361" y="-227.2" font-family="Courier,monospace" font-size="11.00">RegistrationController</text>
</g>
<!-- \\AppBundle\\Controller\\RegistrationController&#45;&gt;\\Symfony\\Bundle\\FrameworkBundle\\Controller\\Controller -->
<g id="edge7" class="edge"><title>\\AppBundle\\Controller\\RegistrationController&#45;&gt;\\Symfony\\Bundle\\FrameworkBundle\\Controller\\Controller</title>
<path fill="none" stroke="black" d="M524.568,-230C502.02,-230 476.399,-230 449.824,-230"/>
<polygon fill="none" stroke="black" points="449.597,-226.5 439.597,-230 449.597,-233.5 449.597,-226.5"/>
</g>
<!-- \\AppBundle\\Controller\\NewsController -->
<g id="node11" class="node"><title>\\AppBundle\\Controller\\NewsController</title>
<polygon fill="none" stroke="black" points="662.861,-194 551.861,-194 551.861,-158 662.861,-158 662.861,-194"/>
<text text-anchor="middle" x="607.361" y="-173.2" font-family="Courier,monospace" font-size="11.00">NewsController</text>
</g>
<!-- \\AppBundle\\Controller\\NewsController&#45;&gt;\\Symfony\\Bundle\\FrameworkBundle\\Controller\\Controller -->
<g id="edge10" class="edge"><title>\\AppBundle\\Controller\\NewsController&#45;&gt;\\Symfony\\Bundle\\FrameworkBundle\\Controller\\Controller</title>
<path fill="none" stroke="black" d="M551.512,-183.68C497.2,-191.284 412.221,-203.182 341.99,-213.015"/>
<polygon fill="none" stroke="black" points="341.158,-209.597 331.74,-214.45 342.129,-216.53 341.158,-209.597"/>
</g>
<!-- \\AppBundle\\Service\\Mailer -->
<g id="node12" class="node"><title>\\AppBundle\\Service\\Mailer</title>
<polygon fill="none" stroke="black" points="635.861,-114 578.861,-114 578.861,-78 635.861,-78 635.861,-114"/>
<text text-anchor="middle" x="607.361" y="-93.2" font-family="Courier,monospace" font-size="11.00">Mailer</text>
</g>
<!-- \\AppBundle\\AppBundle -->
<g id="node13" class="node"><title>\\AppBundle\\AppBundle</title>
<polygon fill="none" stroke="black" points="645.861,-60 568.861,-60 568.861,-24 645.861,-24 645.861,-60"/>
<text text-anchor="middle" x="607.361" y="-39.2" font-family="Courier,monospace" font-size="11.00">AppBundle</text>
</g>
<!-- \\Symfony\\Component\\HttpKernel\\Bundle\\Bundle -->
<g id="node19" class="node"><title>\\Symfony\\Component\\HttpKernel\\Bundle\\Bundle</title>
<ellipse fill="none" stroke="black" cx="219.681" cy="-42" rx="187.367" ry="18"/>
<text text-anchor="middle" x="219.681" y="-38.3" font-family="Times,serif" font-size="14.00" fill="gray">\Symfony\Component\HttpKernel\Bundle\Bundle</text>
</g>
<!-- \\AppBundle\\AppBundle&#45;&gt;\\Symfony\\Component\\HttpKernel\\Bundle\\Bundle -->
<g id="edge9" class="edge"><title>\\AppBundle\\AppBundle&#45;&gt;\\Symfony\\Component\\HttpKernel\\Bundle\\Bundle</title>
<path fill="none" stroke="black" d="M568.678,-42C532.573,-42 475.167,-42 417.307,-42"/>
<polygon fill="none" stroke="black" points="417.264,-38.5001 407.264,-42 417.264,-45.5001 417.264,-38.5001"/>
</g>
</g>
</svg>
